<!DOCTYPE svg PUBLIC "-//W3C//DTD SVG 1.1//EN" "http://www.w3.org/Graphics/SVG/1.1/DTD/svg11.dtd">

<!-- Uploaded to: SVG Repo, www.svgrepo.com, Transformed by: SVG Repo Mixer Tools -->
<svg fill="#000000" width="50px" height="50px" viewBox="0 0 1000 1000" xmlns="http://www.w3.org/2000/svg" stroke="#2e3192">

<g id="SVGRepo_bgCarrier" stroke-width="0"/>

<g id="SVGRepo_tracerCarrier" stroke-linecap="round" stroke-linejoin="round"/>

<g id="SVGRepo_iconCarrier">

<path d="M573 834L166 427q-7-7-6.5-17.5T168 393q35-27 78.5-24.5T321 402l277 276q31 32 34 75.5T607 832q-6 8-16 8.5t-18-6.5zm103-185l204-263 5 5q6 7 16 7t17-7l18-18q7-7 7-17t-7-17L661 64q-7-7-17-7t-17 7l-18 18q-7 7-7 17t7 16l5 5-263 204q-9 6-9.5 17t6.5 18l293 293q7 7 18 6.5t17-9.5zM77 923l20-97 199-199 77 77-199 199z"/>

</g>

</svg>